<?xml version="1.0" encoding="UTF-8"?>
<svg id="_레이어_2" data-name="레이어 2" xmlns="http://www.w3.org/2000/svg" viewBox="0 0 684 219.18">
  <g id="_레이어_1-2" data-name="레이어 1">
    <g>
      <path d="M0,0h45.41v90.82h95.06V0h45.71v219.18h-45.71v-90.82H45.41v90.82H0V0Z"/>
      <path d="M223.67,54.79h44.8v164.38h-44.8V54.79Z"/>
      <path d="M306.3,0h85.98c49.95,0,78.41,30.58,78.41,73.87s-29.06,73.87-79.62,73.87h-39.36v71.45h-45.41V0ZM383.8,111.1c26.94,0,39.96-15.14,39.96-37.24s-13.02-36.63-39.96-36.63h-32.09v73.87h32.09Z"/>
      <path d="M499.63,219.18V0h78.11c66,0,106.26,41.17,106.26,109.29s-40.26,109.89-107.17,109.89h-77.2ZM575.02,180.13c41.78,0,63.57-21.8,63.57-70.84s-21.8-70.23-63.27-70.23h-30.27v141.07h29.97Z"/>
      <rect x="223.67" width="44.8" height="42.27"/>
    </g>
  </g>
</svg>