<?xml version="1.0" encoding="UTF-8"?>
<svg id="_레이어_2" xmlns="http://www.w3.org/2000/svg" version="1.1" viewBox="0 0 326.1 156.3">
  <!-- Generator: Adobe Illustrator 29.3.1, SVG Export Plug-In . SVG Version: 2.1.0 Build 151)  -->
  <g id="_레이어_1-2">
    <g>
      <polygon points="326.1 51.9 326.1 0 222.3 0 222.3 0 170.3 0 170.3 58.4 170.3 97.4 170.3 103.9 170.3 155.8 222.3 155.8 326.1 155.8 326.1 103.9 222.3 103.9 222.3 97.4 326.1 97.4 326.1 58.4 222.3 58.4 222.3 51.9 326.1 51.9"/>
      <polygon points="129.9 52.4 155.8 52.4 155.8 .5 0 .5 0 52.4 26 52.4 0 156.3 52 156.3 77.9 52.4 103.9 156.3 155.8 156.3 129.9 52.4"/>
    </g>
  </g>
</svg>