<?xml version="1.0" encoding="UTF-8"?>
<svg id="_레이어_2" data-name="레이어 2" xmlns="http://www.w3.org/2000/svg" viewBox="0 0 784.9 259.84">
  <g id="_레이어_1-2" data-name="레이어 1">
    <g>
      <path d="M127.27,259.84C57.09,259.84,0,202.75,0,132.58S57.09,5.31,127.27,5.31s127.27,57.09,127.27,127.27-57.09,127.27-127.27,127.27ZM127.27,21.31c-61.35,0-111.27,49.91-111.27,111.27s49.91,111.27,111.27,111.27,111.27-49.91,111.27-111.27S188.62,21.31,127.27,21.31Z"/>
      <path d="M537.44,255.04H242.94L390.19,0l147.25,255.04ZM270.66,239.04h239.07l-119.53-207.04-119.53,207.04Z"/>
      <g>
        <path d="M784.9,254.35h-220.95v-71.11h220.95v71.11ZM579.95,238.35h188.95v-39.11h-188.95v39.11Z"/>
        <path d="M784.9,167.38h-220.95v-71.11h220.95v71.11ZM579.95,151.38h188.95v-39.11h-188.95v39.11Z"/>
        <path d="M784.9,80.4h-220.95V9.29h220.95v71.11ZM579.95,64.4h188.95V25.29h-188.95v39.11Z"/>
      </g>
    </g>
  </g>
</svg>