<?xml version="1.0" encoding="UTF-8"?>
<svg id="_레이어_2" data-name="레이어 2" xmlns="http://www.w3.org/2000/svg" viewBox="0 0 376.53 76.69">
  <g id="_레이어_1-2" data-name="레이어 1">
    <g>
      <path d="M135.01,39.9c-.15,0-.3-.02-.45-.02-3.06-9.12-6.12-18.24-9.13-27.22-.59-.09-.82-.16-1.06-.16-2-.01-4-.03-6-.01-1.88.02-1.9.03-2.51,1.85-1.21,3.63-2.39,7.28-3.6,10.92-1.6,4.84-3.21,9.69-4.82,14.53-.17,0-.33.01-.5.02-2.38-9.07-4.76-18.13-7.14-27.2h-12.81c4.82,15.82,9.58,31.41,14.44,46.93h9.94c3.13-9.35,6.24-18.62,9.34-27.88.18,0,.36,0,.54,0,3.13,9.32,6.26,18.65,9.35,27.85h9.79c1.91-4.45,14.07-45.08,14.02-46.89h-12.26c-2.41,9.16-4.79,18.22-7.17,27.28Z"/>
      <path d="M290.9,12.91c-4.71-1.29-9.49-1.17-14.27-.62-1.49.17-2.98.6-4.39,1.13-2.79,1.05-5.1,2.79-7.07,5.24,2.62,2.55,5.05,4.93,7.57,7.39.78-.69,1.31-1.31,1.98-1.71,1.15-.69,2.35-1.63,3.59-1.75,2.43-.24,4.93-.19,7.35.12,2.84.36,4.21,2.41,4.55,5.13.13,1.07.02,2.18.02,3.43-1,.06-1.78.15-2.56.15-2.32.02-4.64-.09-6.95.04-2.46.14-4.98.23-7.36.81-5.04,1.23-8.57,4.3-9.66,9.53-.42,1.99-.45,4.16-.18,6.19.62,4.62,2.84,8.46,7.24,10.31,6.43,2.71,12.86,2.98,18.83-1.47.23-.17.5-.29.92-.53.13,1.18.24,2.17.36,3.27h11.33c.11-.62.23-1,.23-1.38,0-10.31.15-20.62-.04-30.93-.14-7.55-4.19-12.33-11.49-14.33ZM290.05,45.03c-.47,2.64-2.52,4.56-5.2,4.84-1.81.19-3.66.21-5.47.03-2.89-.29-4.36-2.1-4.35-4.98.01-2.88,1.52-4.7,4.46-4.85,3.48-.18,6.97-.04,10.89-.04-.11,1.87-.05,3.46-.32,5Z"/>
      <path d="M73.37,13.3c-6.16-1.94-12.44-1.91-18.67-.3-3.32.86-5.98,2.86-8.28,5.67,2.6,2.52,5.08,4.93,7.28,7.06,2.17-1.21,3.85-2.66,5.76-3.08,2.27-.5,4.78-.41,7.1-.04,3.37.55,4.84,2.61,4.95,6.06.03.78,0,1.56,0,2.75-3.34,0-6.29-.04-9.23.01-3.11.06-6.24.12-9.21,1.25-4.54,1.72-7.46,4.89-8.29,9.71-.29,1.71-.26,3.52-.09,5.25.56,5.73,4.31,10.11,9.88,11.65,1.3.36,2.65.63,3.99.73,4.41.34,8.62-.18,12.19-3.16.25-.21.61-.3,1-.48.11,1.16.2,2.09.29,2.99,2.85.54,9.83.42,11.51-.2.04-.45.12-.92.12-1.4,0-9.99.07-19.98-.02-29.97-.06-7.37-3.63-12.41-10.3-14.51ZM71.42,44.38c-.35,3.12-2.48,5.26-5.61,5.52-1.89.16-3.83.19-5.7-.08-2.56-.37-3.86-2.22-3.84-4.94.02-2.68,1.39-4.58,4.01-4.75,3.62-.23,7.28-.06,11.16-.06,0,1.62.12,2.98-.02,4.3Z"/>
      <path d="M183.71,13.07c-4.92-1.44-9.94-1.39-14.96-.78-1.64.2-3.3.67-4.83,1.31-2.57,1.08-4.81,2.68-6.23,4.71,2.43,2.65,4.69,5.12,7.13,7.78.87-.76,1.41-1.36,2.07-1.78,1-.63,2.02-1.35,3.14-1.64,2.74-.72,5.53-.64,8.28.09,2.03.54,3.38,1.89,3.8,3.91.3,1.43.22,2.94.32,4.59-1.3.06-2.24.11-3.18.14-3.51.09-7.03.05-10.53.28-8.71.56-13.82,6.48-13.23,15.15.44,6.5,4.72,11.46,11.05,12.77,1.01.21,2.05.37,3.08.44,4.41.28,8.62-.26,12.15-3.27.21-.18.51-.26.87-.43.1,1.12.18,2.06.26,2.96,2.31.55,9.61.5,11.45-.06.06-.21.17-.44.17-.67,0-10.7.17-21.41-.07-32.11-.15-6.76-4.21-11.49-10.74-13.4ZM182.09,45.46c-.5,2.58-2.42,3.98-4.85,4.36-1.95.31-4,.27-5.97.05-2.73-.3-4.15-2.19-4.12-4.98.03-2.75,1.54-4.64,4.31-4.79,3.5-.19,7.01-.05,11.03-.05-.13,1.97-.08,3.73-.4,5.41Z"/>
      <path d="M22.38,39.98c-.17,0-.34,0-.51.01-3.09-9.16-6.19-18.31-9.26-27.41H0c.35,1.08.56,1.84.83,2.58,1.09,3,2.19,6,3.3,9,3.7,10.04,7.41,20.08,11.07,30.13.31.84.49,1.89.27,2.72-.5,1.93-1.25,3.79-1.94,5.66-.79,2.12-2.33,3.14-4.61,3.11-1.09-.01-2.18.09-3.54.15-.02,3.68-.1,7.14.05,10.72,2.37,0,4.43.09,6.48-.02,6.04-.33,9.83-3.57,11.89-9.17,6.47-17.62,13-35.21,19.49-52.82.23-.62.32-1.29.49-2.01h-12.52c-2.98,9.19-5.93,18.26-8.88,27.34Z"/>
      <path d="M241.15,39.97c-.17,0-.34.01-.51.02-3.1-9.16-6.2-18.31-9.3-27.47-4.31-.05-8.33-.09-12.6.01.36,1.14.58,1.89.85,2.63,1.26,3.45,2.53,6.9,3.79,10.35,3.53,9.6,7.07,19.19,10.57,28.79.28.78.55,1.75.35,2.5-.56,2.07-1.33,4.1-2.12,6.11-.75,1.9-2.2,2.86-4.28,2.87-1.17,0-2.34.09-3.61.14v10.73c2.24,0,4.3.09,6.34-.02,6.04-.33,9.85-3.55,11.9-9.15,6.47-17.62,13-35.22,19.5-52.83.23-.62.33-1.29.51-2.03h-12.53c-2.98,9.18-5.93,18.26-8.87,27.33Z"/>
      <path d="M376.25,41.55c-.85-5.48-4.84-9.21-10.88-10.33-2.66-.49-5.39-.65-8.08-.98-1.43-.17-2.89-.24-4.26-.63-2.85-.81-3.57-4.02-1.38-6.03.62-.57,1.46-1.1,2.27-1.24,1.63-.27,3.33-.44,4.98-.32,3.12.23,6.14.95,8.63,2.86,2.48-2.51,4.82-4.88,7.35-7.44-1.73-1.94-3.92-3.23-6.38-4-5.75-1.8-11.67-2.22-17.51-.8-6.84,1.66-12.96,6.36-12.21,15.89.41,5.22,2.94,8.94,8.01,10.52,2.49.77,5.14,1.05,7.74,1.45,2.44.38,4.91.54,7.34.98,1.66.3,2.59,1.5,2.78,3.2.19,1.7-.54,3.04-2.22,3.87-.78.39-1.63.68-2.47.87-2.86.64-5.71.34-8.56-.24-2.72-.55-5.01-1.96-7.07-3.54-2.59,2.65-5.09,5.19-7.71,7.87,2.51,2.76,5.85,4.7,9.71,5.67,4.38,1.1,8.87,1.24,13.34.86,3.77-.32,7.39-1.26,10.61-3.4,5.49-3.65,6.92-8.96,5.97-15.09Z"/>
      <path d="M329.25,49.37c-2.91-.1-4.05-1.23-4.18-4.09-.01-.24,0-.48,0-.72,0-6.39,0-12.78,0-19.17,0-.69.1-1.38.18-2.34h7.86v-9.04c-2.72-.52-5.38.19-8.15-.53V.04c-4.12-.04-7.97-.07-12.07,0v13.58c-1.7.13-3.17.24-4.73.36v8.94c1.52.12,2.92.23,4.61.36.05.99.11,1.77.11,2.55.01,3.83,0,7.67,0,11.5,0,3.03-.1,6.07.04,9.1.26,5.51,2.45,9.93,7.81,12.12,3.95,1.61,8.11,1.16,12.18,1,.59-2.61.5-8.38-.15-10.19-1.14,0-2.34.03-3.53,0Z"/>
      <path d="M347.22,69.6c0,.21,0,.43,0,.64,5.04,1.6,10.08,3.2,15.52,4.93.18-3.63.17-6.88.02-10.51-5.45,1.73-10.49,3.34-15.53,4.94Z"/>
    </g>
  </g>
</svg>