<svg width="1253" height="908" viewBox="0 0 1253 908" fill="none" xmlns="http://www.w3.org/2000/svg">
<g clip-path="url(#clip0_49_749)">
<g opacity="0.22">
<path d="M363 308.977H-52V317.836H363V308.977Z" fill="#00AECB"/>
<path d="M363 291.254H-52V300.114H363V291.254Z" fill="#00AECB"/>
<path d="M363 257H-52V264.677H363V257Z" fill="#00AECB"/>
<path d="M363 273.535H-52V282.395H363V273.535Z" fill="#00AECB"/>
<path d="M363 326.695H-52V335.555H363V326.695Z" fill="#00AECB"/>
<path d="M363 344.414H-52V353.274H363V344.414Z" fill="#00AECB"/>
<path d="M363 415.125H-52V423.985H363V415.125Z" fill="#00AECB"/>
<path d="M363 433.141H-52V442H363V433.141Z" fill="#00AECB"/>
<path d="M363 397.402H-52V406.262H363V397.402Z" fill="#00AECB"/>
<path d="M363 379.684H-52V388.543H363V379.684Z" fill="#00AECB"/>
<path d="M363 362.133H-52V370.817H363V362.133Z" fill="#00AECB"/>
</g>
<g opacity="0.25">
<mask id="mask0_49_749" style="mask-type:alpha" maskUnits="userSpaceOnUse" x="-477" y="733" width="704" height="175">
<rect x="-477" y="733" width="703.271" height="175" fill="#D9D9D9"/>
</mask>
<g mask="url(#mask0_49_749)">
<path d="M0.451904 876.721H-477V869H0.451904C53.6624 869 96.9598 912.297 96.9598 965.517V1206.61H89.2486V965.517C89.2486 916.561 49.418 876.721 0.451904 876.721Z" fill="#00AECB"/>
<path d="M-2.31219 859.086H-477V851.375H-2.31219C61.6735 851.375 113.722 903.433 113.722 967.409V1206.61H106.011V967.409C106.011 907.678 57.4196 859.086 -2.31219 859.086Z" fill="#00AECB"/>
<path d="M-3.371 842.645H-477V834.934H-3.371C69.8063 834.934 129.351 894.469 129.351 967.655V1206.61H121.64V967.655C121.64 898.723 65.5619 842.645 -3.371 842.645Z" fill="#00AECB"/>
<path d="M-4.91693 824.954H-477V817.242H-4.91693C78.3984 817.242 146.179 885.023 146.179 968.338V1206.61H138.468V968.338C138.468 889.276 74.1446 824.954 -4.91693 824.954Z" fill="#00AECB"/>
<path d="M-6.93146 807.996H-477V800.285H-6.93146C86.3814 800.285 162.304 876.198 162.304 969.521V1206.61H154.593V969.521C154.593 880.462 82.1369 807.996 -6.93146 807.996Z" fill="#00AECB"/>
<path d="M-5.77893 791.625H-477V783.914H-5.77893C95.4888 783.914 177.867 866.302 177.867 967.56V1206.6H170.156V967.56C170.156 870.546 91.235 791.625 -5.77893 791.625Z" fill="#00AECB"/>
<path d="M-6.13501 774.489H-477V766.777H-6.13501C104.306 766.777 194.161 856.633 194.161 967.073V1206.61H186.45V967.073C186.45 860.887 100.061 774.489 -6.13501 774.489Z" fill="#00AECB"/>
<path d="M-6.45355 757.86H-477V750.148H-6.45355C112.879 750.148 209.968 847.237 209.968 966.57V1206.61H202.257V966.57C202.257 851.491 108.625 757.86 -6.45355 757.86Z" fill="#00AECB"/>
<path d="M-9.10522 740.711H-477V733H-9.10522C120.684 733 226.271 838.587 226.271 968.376V1206.61H218.56V968.376C218.56 842.841 116.43 740.711 -9.10522 740.711Z" fill="#00AECB"/>
</g>
</g>
<mask id="mask1_49_749" style="mask-type:alpha" maskUnits="userSpaceOnUse" x="717" y="0" width="366" height="179">
<rect x="717.425" width="365.232" height="179" fill="#D9D9D9"/>
</mask>
<g mask="url(#mask1_49_749)">
<g opacity="0.22">
<path d="M900.131 178.638C799.385 178.638 717.425 96.6777 717.425 -4.06854V-8.13672H745.775V-4.06854C745.775 81.0469 815.016 150.287 900.131 150.287C985.247 150.287 1054.49 81.0469 1054.49 -4.06854V-8.13672H1082.84V-4.06854C1082.84 96.6777 1000.88 178.638 900.131 178.638ZM725.615 -0.000354767C727.785 94.3905 805.234 170.502 900.14 170.502C995.047 170.502 1072.5 94.3905 1074.67 -0.000354767H1062.58C1060.41 87.7187 988.375 158.424 900.14 158.424C811.906 158.424 739.872 87.7277 737.702 -0.000354767H725.615Z" fill="#00AECB"/>
<path d="M900.131 158.424C810.531 158.424 737.639 85.5309 737.639 -4.06854V-8.13672H765.465V-4.06854C765.465 70.1893 825.873 130.597 900.131 130.597C974.389 130.597 1034.8 70.1893 1034.8 -4.06854V-8.13672H1062.62V-4.06854C1062.62 85.5309 989.73 158.424 900.131 158.424ZM745.829 -0.000354767C747.999 83.2346 816.381 150.287 900.131 150.287C983.881 150.287 1052.26 83.2346 1054.43 -0.000354767H1042.88C1040.72 76.8702 977.517 138.734 900.131 138.734C822.745 138.734 759.544 76.8702 757.383 -0.000354767H745.829Z" fill="#00AECB"/>
<path d="M900.131 138.734C821.389 138.734 757.329 74.6734 757.329 -4.06854V-8.13672H783.989V-4.06854C783.989 59.9737 836.089 112.074 900.131 112.074C964.174 112.074 1016.27 59.9737 1016.27 -4.06854V-8.13672H1042.93V-4.06854C1042.93 74.6734 978.873 138.734 900.131 138.734ZM765.529 -0.000354767C767.689 72.3862 827.239 130.597 900.131 130.597C973.024 130.597 1032.58 72.3771 1034.73 -0.000354767H1024.35C1022.19 66.6545 967.302 120.21 900.131 120.21C832.961 120.21 778.068 66.6545 775.916 -0.000354767H765.529Z" fill="#00AECB"/>
<path d="M900.132 120.21C831.606 120.21 775.854 64.4577 775.854 -4.06854V-8.13672H803.644V-4.06854C803.644 49.1342 846.929 92.4197 900.132 92.4197C953.335 92.4197 996.62 49.1342 996.62 -4.06854V-8.13672H1024.41V-4.06854C1024.41 64.4577 968.658 120.21 900.132 120.21ZM784.062 -0.000353813C786.214 62.1705 837.455 112.074 900.141 112.074C962.827 112.074 1014.07 62.1615 1016.22 -0.000353813H1004.69C1002.55 55.8151 956.472 100.556 900.141 100.556C843.81 100.556 797.74 55.8061 795.589 -0.000353813H784.062Z" fill="#00AECB"/>
<path d="M900.131 100.556C842.436 100.556 795.507 53.6183 795.507 -4.06854V-8.13672H824.273V-4.06854C824.273 37.7614 858.301 71.7895 900.131 71.7895C941.961 71.7895 975.989 37.7614 975.989 -4.06854V-8.13672H1004.76V-4.06854C1004.76 53.6273 957.818 100.556 900.131 100.556ZM803.725 -0.000355721C805.867 51.322 848.294 92.4197 900.131 92.4197C951.969 92.4197 994.396 51.322 996.538 -0.000355721H984.035C981.911 44.4332 945.089 79.9259 900.14 79.9259C855.192 79.9259 818.37 44.4332 816.237 -0.000355721H803.734H803.725Z" fill="#00AECB"/>
<path d="M900.13 79.9259C853.816 79.9259 816.136 42.2455 816.136 -4.06854V-8.13672H984.124V-4.06854C984.124 42.2455 946.444 79.9259 900.13 79.9259ZM824.381 -0.000354767C826.505 39.9402 859.665 71.7895 900.13 71.7895C940.595 71.7895 973.755 39.9402 975.88 -0.000354767H824.372H824.381Z" fill="#00AECB"/>
</g>
</g>
</g>
<defs>
<clipPath id="clip0_49_749">
<rect width="1253" height="908" fill="white"/>
</clipPath>
</defs>
</svg>
