<svg width="266" height="56" viewBox="0 0 266 56" fill="none" xmlns="http://www.w3.org/2000/svg">
<path d="M36.8945 19.793H28.8789V45H18.9297V19.793H10.8789V9.84375H36.8945V19.793ZM48.6016 9.84375V31.8516C48.6016 32.7422 48.9121 33.498 49.5332 34.1191C50.1543 34.7402 50.9102 35.0508 51.8008 35.0508C52.6914 35.0508 53.4531 34.7402 54.0859 34.1191C54.7188 33.498 55.0352 32.7422 55.0352 31.8516V9.84375H64.9844V31.8516C64.9844 35.4844 63.7012 38.584 61.1348 41.1504C58.5684 43.7168 55.457 45 51.8008 45C48.168 45 45.0684 43.7168 42.502 41.1504C39.9355 38.584 38.6523 35.4844 38.6523 31.8516V9.84375H48.6016ZM66.7422 45V22.9922C66.7422 19.3828 68.0312 16.2891 70.6094 13.7109C73.1875 11.1328 76.293 9.84375 79.9258 9.84375C83.5586 9.84375 86.6582 11.1328 89.2246 13.7109C91.791 16.2891 93.0742 19.3828 93.0742 22.9922C93.0742 26.6484 91.7969 29.7539 89.2422 32.3086C89.1016 32.4258 88.9609 32.5547 88.8203 32.6953C88.7969 32.6953 88.6797 32.8008 88.4688 33.0117C88.2344 33.2461 88.1172 33.5273 88.1172 33.8555C88.1172 34.1602 88.2344 34.4297 88.4688 34.6641C88.7031 34.8984 88.9844 35.0156 89.3125 35.0156H93.6016V45H89.3125C86.2422 45 83.6172 43.9102 81.4375 41.7305C79.2578 39.5508 78.168 36.9258 78.168 33.8555C78.168 30.7852 79.2578 28.1484 81.4375 25.9453C81.6953 25.6875 81.9648 25.4414 82.2461 25.207C82.832 24.5977 83.125 23.8594 83.125 22.9922C83.125 22.125 82.8086 21.375 82.1758 20.7422C81.543 20.1094 80.793 19.793 79.9258 19.793C79.0352 19.793 78.2734 20.1094 77.6406 20.7422C77.0078 21.375 76.7031 22.125 76.7266 22.9922V45H66.7422ZM124.012 9.84375V38.707C124.012 40.4648 123.402 41.9531 122.184 43.1719C120.965 44.3906 119.488 45 117.754 45C116.02 45 114.543 44.3906 113.324 43.1719C113.043 42.9141 112.797 42.6328 112.586 42.3281L112.551 42.3633L105.344 29.8477V45H95.3594V16.1367C95.3594 14.3789 95.9688 12.8906 97.1875 11.6719C98.4062 10.4531 99.8828 9.84375 101.617 9.84375C103.352 9.84375 104.828 10.4531 106.047 11.6719C106.328 11.9297 106.574 12.2109 106.785 12.5156L106.82 12.4805L114.027 24.9961V9.84375H124.012ZM156.496 19.793C154.41 19.793 152.623 20.5371 151.135 22.0254C149.646 23.5137 148.902 25.3008 148.902 27.3867C148.902 29.4961 149.646 31.2949 151.135 32.7832C152.623 34.2715 154.41 35.0156 156.496 35.0156C158.582 35.0156 160.369 34.2715 161.857 32.7832C163.346 31.2949 164.09 29.4961 164.09 27.3867C164.09 25.3008 163.346 23.5137 161.857 22.0254C160.369 20.5371 158.582 19.793 156.496 19.793ZM156.496 45C151.645 45 147.502 43.2832 144.068 39.8496C140.635 36.416 138.918 32.2734 138.918 27.4219C138.918 22.5938 140.635 18.457 144.068 15.0117C147.502 11.5664 151.645 9.84375 156.496 9.84375C161.348 9.84375 165.496 11.5664 168.941 15.0117C172.387 18.457 174.109 22.5938 174.109 27.4219C174.109 32.2734 172.387 36.416 168.941 39.8496C165.496 43.2832 161.348 45 156.496 45ZM181.811 9.84375L187.647 27.1758L193.518 9.84375H204.065L193.729 40.5C193.448 41.5078 192.921 42.3984 192.147 43.1719C190.929 44.3906 189.44 45 187.682 45C185.948 45 184.472 44.3906 183.253 43.1719C182.62 42.5391 182.151 41.8359 181.847 41.0625H181.811L171.3 9.84375H181.811ZM225.021 19.793H214.404C214.029 19.793 213.701 19.9336 213.42 20.2148C213.138 20.4961 212.998 20.8242 212.998 21.1992V22.2891H222.806V32.5547H212.998V33.6094C212.998 33.9844 213.138 34.3125 213.42 34.5938C213.701 34.875 214.029 35.0156 214.404 35.0156H225.021V45H213.455C210.549 45 208.064 43.9805 206.002 41.9414C204.08 39.9961 203.06 37.6875 202.943 35.0156V19.8281C203.06 17.1562 204.08 14.8477 206.002 12.9023C208.064 10.8633 210.549 9.84375 213.455 9.84375H225.021V19.793ZM227.499 45V22.9922C227.499 19.3828 228.788 16.2891 231.366 13.7109C233.944 11.1328 237.05 9.84375 240.683 9.84375C244.315 9.84375 247.415 11.1328 249.981 13.7109C252.548 16.2891 253.831 19.3828 253.831 22.9922C253.831 26.6484 252.554 29.7539 249.999 32.3086C249.858 32.4258 249.718 32.5547 249.577 32.6953C249.554 32.6953 249.437 32.8008 249.226 33.0117C248.991 33.2461 248.874 33.5273 248.874 33.8555C248.874 34.1602 248.991 34.4297 249.226 34.6641C249.46 34.8984 249.741 35.0156 250.069 35.0156H254.358V45H250.069C246.999 45 244.374 43.9102 242.194 41.7305C240.015 39.5508 238.925 36.9258 238.925 33.8555C238.925 30.7852 240.015 28.1484 242.194 25.9453C242.452 25.6875 242.722 25.4414 243.003 25.207C243.589 24.5977 243.882 23.8594 243.882 22.9922C243.882 22.125 243.565 21.375 242.933 20.7422C242.3 20.1094 241.55 19.793 240.683 19.793C239.792 19.793 239.03 20.1094 238.398 20.7422C237.765 21.375 237.46 22.125 237.483 22.9922V45H227.499Z" fill="#00AECC"/>
</svg>
